<?xml version="1.0" encoding="UTF-8" standalone="no"?>
<svg width="154px" height="25px" viewBox="0 0 154 25" version="1.1" xmlns="http://www.w3.org/2000/svg" xmlns:xlink="http://www.w3.org/1999/xlink" xmlns:sketch="http://www.bohemiancoding.com/sketch/ns">
    <!-- Generator: Sketch 3.2.2 (9983) - http://www.bohemiancoding.com/sketch -->
    <title>Imported Layers</title>
    <desc>Created with Sketch.</desc>
    <defs></defs>
    <g id="Page-1" stroke="none" stroke-width="1" fill="none" fill-rule="evenodd" sketch:type="MSPage">
        <g id="Desktop-Landscape" sketch:type="MSArtboardGroup" transform="translate(-554.000000, -42.000000)">
            <g id="Imported-Layers" sketch:type="MSLayerGroup" transform="translate(554.000000, 41.000000)">
                <path d="M37.6383333,14.42475 L32.9833333,14.42475 L32.105,16.66575 L27.8233333,16.66575 L33.6116667,1.4630625 L37.0083333,1.4630625 L43.41,18.241875 L39.0566667,18.241875 L37.6383333,14.42475 L37.6383333,14.42475 Z M35.31,7.968375 L34.5183333,10.418625 L36.0783333,10.418625 L35.31,7.968375 L35.31,7.968375 Z" id="Fill-1" fill="#4D4D4C" sketch:type="MSShapeGroup"></path>
                <path d="M51.0183333,10.371375 C50.46,10.8894375 49.8783333,11.4800625 49.2033333,12.11625 L49.2033333,16.7248125 L45.2,16.7248125 L45.2,1.4630625 L49.2033333,1.4630625 L49.2033333,6.577875 L54.58,1.4630625 L60.3983333,1.4630625 L54.0433333,7.5448125 C56.325,10.773 59.49,15.2499375 61.585,18.241875 L56.5583333,18.241875 L51.0183333,10.371375" id="Fill-2" fill="#4D4D4C" sketch:type="MSShapeGroup"></path>
                <path d="M78.1766667,9.7588125 C78.1766667,14.542875 74.2666667,18.4545 69.5433333,18.4545 C64.795,18.4545 60.9316667,14.542875 60.9316667,9.7588125 C60.9316667,4.9275 64.795,1.015875 69.5433333,1.015875 C74.2666667,1.015875 78.1766667,4.9275 78.1766667,9.7588125 L78.1766667,9.7588125 Z M74.105,9.7588125 C74.105,7.1904375 72.08,5.045625 69.5433333,5.045625 C67.0066667,5.045625 64.9583333,7.1904375 64.9583333,9.7588125 C64.9583333,12.3035625 67.0066667,14.401125 69.5433333,14.401125 C72.08,14.401125 74.105,12.3035625 74.105,9.7588125 L74.105,9.7588125 Z" id="Fill-3" fill="#4D4D4C" sketch:type="MSShapeGroup"></path>
                <path d="M93.4666667,1.4630625 L93.4666667,11.7855 C93.4666667,15.460875 90.5116667,18.4545 86.88,18.4545 C83.2733333,18.4545 80.3166667,15.460875 80.3166667,11.7855 L80.3166667,1.4630625 L84.32,1.4630625 L84.32,11.7855 C84.32,13.246875 85.4833333,14.42475 86.88,14.42475 C88.3,14.42475 89.44,13.246875 89.44,11.7855 L89.44,1.4630625 L93.4666667,1.4630625" id="Fill-4" fill="#4D4D4C" sketch:type="MSShapeGroup"></path>
                <path d="M101.005,18.194625 C99.33,17.8419375 97.7933333,17.064 95.815,15.3444375 L98.4683333,12.2563125 C99.935,13.5523125 100.796667,14.04675 101.82,14.23575 C102.123333,14.306625 102.425,14.353875 102.705,14.353875 C103.17,14.353875 103.588333,14.259375 103.915,14.0956875 C104.193333,13.9539375 104.683333,13.6468125 104.683333,13.010625 C104.683333,12.3508125 103.473333,11.950875 102.425,11.73825 C101.96,11.64375 99.68,11.1493125 98.7483333,10.584 C97.165,9.6406875 96.3516667,8.204625 96.3516667,6.4125 C96.3516667,5.423625 96.6766667,4.4803125 97.2116667,3.67875 C97.7466667,2.9244375 98.4916667,2.3355 99.3533333,1.9355625 L99.33,1.9591875 C100.215,1.5339375 101.215,1.323 102.17,1.323 C102.565,1.323 102.938333,1.346625 103.403333,1.4175 C104.891667,1.6756875 106.265,2.28825 108.173333,3.891375 L105.613333,7.0014375 C103.891667,5.5636875 103.006667,5.35275 102.123333,5.35275 C101.68,5.35275 101.331667,5.44725 101.051667,5.5873125 C100.61,5.7763125 100.376667,6.1070625 100.376667,6.4125 C100.376667,7.0486875 101.215,7.3558125 102.565,7.637625 C102.705,7.684875 102.868333,7.684875 103.03,7.732125 C103.938333,7.94475 105.288333,8.2265625 106.173333,8.7463125 L106.15,8.7463125 C107.825,9.6879375 108.71,11.1729375 108.71,13.010625 C108.71,14.0956875 108.43,15.1081875 107.825,15.957 C107.29,16.7349375 106.498333,17.30025 105.613333,17.7474375 C104.683333,18.241875 103.728333,18.383625 102.681667,18.383625 C102.123333,18.383625 101.518333,18.31275 101.005,18.194625" id="Fill-5" fill="#4D4D4C" sketch:type="MSShapeGroup"></path>
                <path d="M113.851667,5.518125 L110.058333,5.518125 L110.058333,1.4630625 L121.671667,1.4630625 L121.671667,5.518125 L117.878333,5.518125 L117.878333,18.241875 L113.851667,18.241875 L113.851667,5.518125" id="Fill-6" fill="#4D4D4C" sketch:type="MSShapeGroup"></path>
                <path d="M139.591667,9.7588125 C139.591667,14.542875 135.681667,18.4545 130.956667,18.4545 C126.208333,18.4545 122.345,14.542875 122.345,9.7588125 C122.345,4.9275 126.208333,1.015875 130.956667,1.015875 C135.681667,1.015875 139.591667,4.9275 139.591667,9.7588125 L139.591667,9.7588125 Z M135.518333,9.7588125 C135.518333,7.1904375 133.493333,5.045625 130.956667,5.045625 C128.42,5.045625 126.371667,7.1904375 126.371667,9.7588125 C126.371667,12.3035625 128.42,14.401125 130.956667,14.401125 C133.493333,14.401125 135.518333,12.3035625 135.518333,9.7588125 L135.518333,9.7588125 Z" id="Fill-7" fill="#4D4D4C" sketch:type="MSShapeGroup"></path>
                <path d="M146.291667,18.194625 C144.616667,17.8419375 143.08,17.064 141.101667,15.3444375 L143.755,12.2563125 C145.221667,13.5523125 146.083333,14.04675 147.106667,14.23575 C147.41,14.306625 147.711667,14.353875 147.991667,14.353875 C148.456667,14.353875 148.875,14.259375 149.201667,14.0956875 C149.48,13.9539375 149.97,13.6468125 149.97,13.010625 C149.97,12.3508125 148.76,11.950875 147.711667,11.73825 C147.246667,11.64375 144.965,11.1493125 144.035,10.584 C142.451667,9.6406875 141.638333,8.204625 141.638333,6.4125 C141.638333,5.423625 141.963333,4.4803125 142.498333,3.67875 C143.033333,2.9244375 143.778333,2.3355 144.64,1.9355625 L144.616667,1.9591875 C145.501667,1.5339375 146.501667,1.323 147.456667,1.323 C147.851667,1.323 148.225,1.346625 148.69,1.4175 C150.178333,1.6756875 151.551667,2.28825 153.46,3.891375 L150.9,7.0014375 C149.178333,5.5636875 148.293333,5.35275 147.41,5.35275 C146.966667,5.35275 146.618333,5.44725 146.338333,5.5873125 C145.896667,5.7763125 145.663333,6.1070625 145.663333,6.4125 C145.663333,7.0486875 146.501667,7.3558125 147.851667,7.637625 C147.991667,7.684875 148.155,7.684875 148.316667,7.732125 C149.225,7.94475 150.575,8.2265625 151.46,8.7463125 L151.436667,8.7463125 C153.111667,9.6879375 153.996667,11.1729375 153.996667,13.010625 C153.996667,14.0956875 153.716667,15.1081875 153.111667,15.957 C152.576667,16.7349375 151.785,17.30025 150.9,17.7474375 C149.97,18.241875 149.015,18.383625 147.968333,18.383625 C147.41,18.383625 146.805,18.31275 146.291667,18.194625" id="Fill-8" fill="#4D4D4C" sketch:type="MSShapeGroup"></path>
                <path d="M27.525,17.4774375 L27.2216667,18.241875 L31.515,18.241875 L31.8133333,17.4774375 L27.525,17.4774375" id="Fill-9" fill="#00A3DB" sketch:type="MSShapeGroup"></path>
                <path d="M45.2,17.4774375 L45.2,18.241875 L49.2033333,18.241875 L49.21,17.4774375 L45.2,17.4774375" id="Fill-10" fill="#00A3DB" sketch:type="MSShapeGroup"></path>
                <path d="M0.348333333,17.4774375 L0.045,18.241875 L4.33833333,18.241875 L4.63833333,17.4774375 L0.348333333,17.4774375" id="Fill-11" fill="#00A3DB" sketch:type="MSShapeGroup"></path>
                <path d="M5.91333333,16.844625 L4.965,19.39275 L6.73166667,19.39275 L7.68,16.844625 L5.91333333,16.844625" id="Fill-12" fill="#00A3DB" sketch:type="MSShapeGroup"></path>
                <path d="M10.0266667,13.4611875 L6.985,21.357 L8.75166667,21.357 L11.7933333,13.4611875 L10.0266667,13.4611875" id="Fill-13" fill="#00A3DB" sketch:type="MSShapeGroup"></path>
                <path d="M13.51,11.421 L8.16166667,25.5234375 L9.93,25.5234375 L15.2766667,11.421 L13.51,11.421" id="Fill-14" fill="#00A3DB" sketch:type="MSShapeGroup"></path>
                <path d="M17.0266667,9.342 L11.57,23.7988125 L13.3366667,23.7988125 L18.7933333,9.342 L17.0266667,9.342" id="Fill-15" fill="#00A3DB" sketch:type="MSShapeGroup"></path>
                <path d="M19.27,10.8624375 L13.8983333,25.0846875 L15.665,25.0846875 L21.0383333,10.8624375 L19.27,10.8624375" id="Fill-16" fill="#00A3DB" sketch:type="MSShapeGroup"></path>
                <path d="M20.915,13.7851875 L18.0066667,21.48525 L19.775,21.48525 L22.6816667,13.7851875 L20.915,13.7851875" id="Fill-17" fill="#00A3DB" sketch:type="MSShapeGroup"></path>
                <path d="M22.915,15.53175 L21.2033333,20.0289375 L22.9716667,20.0289375 L24.6833333,15.53175 L22.915,15.53175" id="Fill-18" fill="#00A3DB" sketch:type="MSShapeGroup"></path>
                <path d="M24.9333333,17.1045 L24.2333333,18.873 L26.02,18.873 L26.6883333,17.1045 L24.9333333,17.1045" id="Fill-19" fill="#00A3DB" sketch:type="MSShapeGroup"></path>
            </g>
        </g>
    </g>
</svg>